# AST/ASF file generated using VICON BodyLanguage
# -----------------------------------------------
:version 1.10
:name VICON
:units
  mass 1.0
  length 0.45
  angle deg
:documentation
   .ast/.asf automatically generated from VICON data using
   VICON BodyBuilder and BodyLanguage model FoxedUp or BRILLIANT.MOD
:root
   order TX TY TZ RX RY RZ
   axis XYZ
   position 0 0 0  
   orientation 0 0 0 
:bonedata
  begin
     id 1 
     name lhipjoint
     direction 0.714689 -0.624256 0.315473 
     length 2.45343 
     axis 0 0 0  XYZ
  end
  begin
     id 2 
     name lfemur
     direction 0.34202 -0.939693 0  
     length 6.59069  
     axis 0 0 20  XYZ
    dof rx ry rz
    limits (-160.0 20.0)
           (-70.0 70.0)
           (-60.0 70.0)
  end
  begin
     id 3 
     name ltibia
     direction 0.34202 -0.939693 0   
     length 6.73476   
     axis 0 0 20   XYZ
    dof rx
    limits (-10.0 170.0)
  end
  begin
     id 4 
     name lfoot
     direction 0.0718085 -0.197292 0.977711   
     length 1.52607   
     axis -90 7.62852e-016 20   XYZ
    dof rx rz
    limits (-45.0 90.0)
           (-70.0 20.0)
  end
  begin
     id 5 
     name ltoes
     direction 1.53553e-011 -4.22024e-011 1   
     length 0.777832   
     axis -90 7.62852e-016 20   XYZ
    dof rx
    limits (-90.0 20.0)
  end
  begin
     id 6 
     name rhipjoint
     direction -0.727419 -0.612432 0.309497   
     length 2.50079  
     axis 0 0 0  XYZ 
  end
  begin
     id 7 
     name rfemur
     direction -0.34202 -0.939693 0   
     length 6.51665   
     axis 0 0 -20   XYZ
    dof rx ry rz
    limits (-160.0 20.0)
           (-70.0 70.0)
           (-70.0 60.0)
  end
  begin
     id 8 
     name rtibia
     direction -0.34202 -0.939693 0   
     length 6.48919   
     axis 0 0 -20   XYZ
    dof rx
    limits (-10.0 170.0)
 end
 begin
     id 9 
     name rfoot
     direction -0.112205 -0.308282 0.944655   
     length 1.68717  
     axis -90 -7.62852e-016 -20   XYZ
    dof rx rz
    limits (-45.0 90.0)
           (-20.0 70.0)
  end
  begin
     id 10 
     name rtoes
     direction -1.53583e-011 -4.21993e-011 1   
     length 0.846859   
     axis -90 -7.62852e-016 -20   XYZ
    dof rx
    limits (-90.0 20.0)
  end
  begin
     id 11 
     name lowerback
     direction -0.00119603 0.996364 -0.0851956   
     length 1.67242   
     axis 0 0 0   XYZ
    dof rx ry rz
    limits (-20.0 45.0)
           (-30.0 30.0)
           (-30.0 30.0)
  end
  begin
     id 12 
     name upperback
     direction -0.00531001 0.998318 0.0577248   
     length 1.64819   
     axis 0 0 0   XYZ
    dof rx ry rz
    limits (-20.0 45.0)
           (-30.0 30.0)
           (-30.0 30.0)
  end
  begin
     id 13 
     name thorax
     direction -0.00653676 0.995132 0.0983291   
     length 1.67429   
     axis 0 0 0   XYZ
    dof rx ry rz
    limits (-20.0 45.0)
           (-30.0 30.0)
           (-30.0 30.0)
  end
  begin
     id 14 
     name lowerneck
     direction 0.0141424 0.999886 0.00525412   
     length 1.59623   
     axis 0 0 0   XYZ
    dof rx ry rz
    limits (-20.0 45.0)
           (-30.0 30.0)
           (-30.0 30.0)
  end
  begin
     id 15 
     name upperneck
     direction -0.0640064 0.987178 -0.146232   
     length 1.59576   
     axis 0 0 0   XYZ
    dof rx ry rz
    limits (-20.0 45.0)
           (-30.0 30.0)
           (-30.0 30.0)
  end
  begin
     id 16
     name head
     direction -0.0222942 0.998496 -0.0500859  
     length 1.60959  
     axis 0 0 0   XYZ
    dof rx ry rz
    limits (-20.0 45.0)
           (-30.0 30.0)
           (-30.0 30.0)
  end
  begin
     id 17 
     name lclavicle
     direction 0.908549 0.392612 0.142806  
     length 2.80649  
     axis 0 0 0   XYZ
    dof ry rz
    limits (-20.0 10.0)
           (0.0 20.0)
  end
  begin
     id 18 
     name lhumerus
     direction 1 -4.48968e-011 1.08832e-028   
     length 4.2884   
     axis -180 -30 -90   XYZ
    dof rx ry rz
    limits (-60.0 90.0)
           (-90.0 90.0)
           (-90.0 90.0)
  end
  begin
     id 19
     name lradius
     direction 1 -4.48952e-011 -3.02642e-028   
     length 3.06552   
     axis -180 -30 -90   XYZ
    dof rx
    limits (-10.0 170.0)
  end
  begin
     id 20
     name lwrist
     direction 1 -4.49014e-011 1.58672e-027   
     length 1.53276   
     axis -1.65735e-015 90 90   XYZ
    dof ry
    limits (-180.0 0.0)
 end
  begin
     id 21 
     name lhand
     direction 1 -4.48928e-011 3.17344e-027   
     length 0.753045   
     axis -2.02492e-015 90 90   XYZ
    dof rx rz
    limits (-90.0 90.0)
           (-45.0 45.0)
  end
  begin
     id 22 
     name lfingers
     direction 1 -4.48958e-011 6.34687e-027   
     length 0.607124   
     axis -4.04985e-015 90 90   XYZ
    dof rx
    limits (0.0 90.0)
  end
  begin
     id 23
     name lthumb
     direction 0.707107 -6.34905e-011 0.707107   
     length 0.871712   
     axis -90 45 2.85299e-015   XYZ
    dof rx rz
    limits (-45.0 45.0)
           (-45.0 45.0)
  end
  begin
     id 24 
     name rclavicle
     direction -0.885098 0.45949 0.0739604   
     length 2.9478  
     axis 0 0 0   XYZ 
    dof ry rz
    limits (-10.0 20.0)
           (-20.0 0.0)
  end
  begin
     id 25 
     name rhumerus
     direction -1 -4.4898e-011 -2.61739e-027  
     length 4.52172   
     axis -180 30 90   XYZ
    dof rx ry rz
    limits (-90.0 60.0)
           (-90.0 90.0)
           (-90.0 90.0)
  end
  begin
     id 26 
     name rradius
     direction -1 -4.48945e-011 9.02552e-028   
     length 2.8914   
     axis -180 30 90   XYZ
    dof rx
    limits (-10.0 170.0)
  end
  begin
     id 27 
     name rwrist
     direction -1 -4.49018e-011 1.58672e-027   
     length 1.4457   
     axis -1.65735e-015 -90 -90   XYZ
    dof ry
    limits (-180.0 0.0)
  end
  begin
     id 28
     name rhand
     direction -1 -4.48825e-011 3.17344e-027   
     length 0.680541   
     axis -2.02492e-015 -90 -90   XYZ
    dof rx rz
    limits (-90.0 90.0)
           (-45.0 45.0)
  end
  begin
     id 29
     name rfingers
     direction -1 -4.49067e-011 6.34687e-027   
     length 0.54867   
     axis -4.04985e-015 -90 -90   XYZ
    dof rx
    limits (0.0 90.0)
  end
  begin
     id 30
     name rthumb
     direction -0.707107 -6.34833e-011 0.707107   
     length 0.787783   
     axis -90 -45 -2.85299e-015   XYZ
    dof rx rz
    limits (-45.0 45.0)
           (-45.0 45.0)
  end
:hierarchy
  begin
    root lhipjoint rhipjoint lowerback
    lhipjoint lfemur
    lfemur ltibia
    ltibia lfoot
    lfoot ltoes
    rhipjoint rfemur
    rfemur rtibia
    rtibia rfoot
    rfoot rtoes
    lowerback upperback
    upperback thorax
    thorax lowerneck lclavicle rclavicle
    lowerneck upperneck
    upperneck head
    lclavicle lhumerus
    lhumerus lradius
    lradius lwrist
    lwrist lhand lthumb
    lhand lfingers
    rclavicle rhumerus
    rhumerus rradius
    rradius rwrist
    rwrist rhand rthumb
    rhand rfingers
  end

#!OML:ASF E:\emotionWalksFemale\Project 1\Capture day 1\Session 1\Female1.ASF
:FULLY-SPECIFIED
:DEGREES
714
root 7.34145 14.9371 41.3178 -182.312 0.380648 -172.937
lowerback 13.7434 2.22521 -7.73922
upperback -2.62242 1.53064 -2.40471
thorax -10.7757 1.1909 1.38116
lowerneck -3.18959 -5.90215 -8.71285
upperneck 8.68479 -9.69903 16.1235
head 4.31199 -4.73017 5.88685
rclavicle 3.93594e-014 -5.08889e-014
rhumerus -54.8685 28.469 -110.72
rradius 50.9769
rwrist -2.995
rhand -2.01031 -52.397
rfingers 7.12502
rthumb -156.336 459.039
lclavicle 3.93594e-014 -5.08889e-014
lhumerus -48.0283 -6.04805 88.0427
lradius 40.2111
lwrist -3.89712
lhand -14.7261 -35.1819
lfingers 7.12502
lthumb 11.4289 -5.51335
rfemur -30.2324 3.00588 25.5196
rtibia 58.4329
rfoot -9.89662 -14.6808
rtoes -10.2319
lfemur -8.39811 -6.94896 -21.697
ltibia 37.8404
lfoot -31.4277 11.07
ltoes -17.6377
715
root 7.34312 14.9282 41.2932 -182.797 0.642523 -173.456
lowerback 14.0655 2.42363 -8.31721
upperback -2.45575 1.67857 -2.59917
thorax -10.8068 1.29805 1.44773
lowerneck -3.3722 -5.96595 -8.63103
upperneck 8.71372 -9.80621 16.2114
head 4.36716 -4.77184 5.88642
rclavicle -6.13748e-015 -3.18055e-014
rhumerus -54.7003 28.2065 -110.605
rradius 51.007
rwrist -2.9601
rhand -1.96524 -52.1157
rfingers 7.12502
rthumb -156.293 459.326
lclavicle -6.13748e-015 -3.18055e-014
lhumerus -47.8763 -6.27623 88.0417
lradius 39.7487
lwrist -4.52115
lhand -16.3118 -36.2082
lfingers 7.12502
lthumb 9.89939 -6.46093
rfemur -29.9429 3.21859 24.9785
rtibia 57.7676
rfoot -10.3515 -14.7508
rtoes -10.3075
lfemur -7.5758 -6.71678 -22.3619
ltibia 37.551
lfoot -31.6274 11.0536
ltoes -16.6014
716
root 7.3381 14.9333 41.2917 -182.363 0.0412596 -172.575
lowerback 14.0121 2.31293 -7.24846
upperback -2.60333 1.36379 -2.46633
thorax -10.8966 0.943289 1.09624
lowerneck -3.38056 -5.95013 -8.69919
upperneck 8.75752 -9.80207 16.2997
head 4.38872 -4.7696 5.92616
rclavicle -1.49089e-015 5.08889e-014
rhumerus -54.6539 28.2037 -110.664
rradius 51.0039
rwrist -3.17772
rhand -2.57119 -51.3194
rfingers 7.12502
rthumb -156.875 460.049
lclavicle -1.49089e-015 5.08889e-014
lhumerus -47.7049 -6.08752 87.7131
lradius 40.5177
lwrist -2.27143
lhand -12.5011 -33.72
lfingers 7.12502
lthumb 13.574 -4.18249
rfemur -30.511 2.99282 25.8799
rtibia 56.737
rfoot -10.5951 -15.0221
rtoes -9.83038
lfemur -8.20683 -6.90283 -21.2437
ltibia 37.5062
lfoot -31.3069 10.6388
ltoes -16.4687
717
root 7.33486 14.9366 41.2523 -182.926 -0.235373 -173.864
lowerback 14.3314 2.40383 -8.52236
upperback -2.4461 1.14076 -2.78298
thorax -10.9309 0.879283 1.51292
lowerneck -3.23355 -5.88087 -8.92643
upperneck 8.79473 -9.72641 16.4324
head 4.38119 -4.74268 6.01804
rclavicle -1.96051e-014 8.5875e-014
rhumerus -54.9112 28.336 -110.778
rradius 51.0696
rwrist -3.48276
rhand -3.32482 -50.7425
rfingers 7.12502
rthumb -157.598 460.537
lclavicle -1.96051e-014 8.5875e-014
lhumerus -47.9012 -5.95708 87.7365
lradius 40.473
lwrist -2.43548
lhand -13.7769 -33.9586
lfingers 7.12502
lthumb 12.3442 -4.34299
rfemur -29.8984 2.71993 24.3688
rtibia 55.9203
rfoot -11.3389 -14.8366
rtoes -7.71274
lfemur -7.13249 -7.02493 -22.834
ltibia 37.0296
lfoot -31.1794 10.9437
ltoes -17.5549
718
root 7.33245 14.9355 41.2235 -183.013 -0.3362 -174.296
lowerback 14.2697 2.43352 -8.98646
upperback -2.41371 1.07519 -2.88461
thorax -10.8676 0.862451 1.6797
lowerneck -3.14442 -5.85245 -9.00071
upperneck 8.736 -9.68132 16.4684
head 4.34735 -4.7266 6.04875
rclavicle 9.88954e-015 3.18055e-014
rhumerus -55.0884 28.5076 -110.856
rradius 51.114
rwrist -3.58392
rhand -3.53251 -50.7819
rfingers 7.12502
rthumb -157.797 460.473
lclavicle 9.88954e-015 3.18055e-014
lhumerus -48.0329 -6.01096 87.911
lradius 39.3465
lwrist -5.12018
lhand -18.8421 -36.6609
lfingers 7.12502
lthumb 7.4576 -6.81238
rfemur -29.7193 2.73635 23.8094
rtibia 54.857
rfoot -11.885 -14.8449
rtoes -4.75222
lfemur -6.7535 -7.3713 -23.4487
ltibia 36.8093
lfoot -31.1614 11.5018
ltoes -18.4719
719
root 7.33165 14.9341 41.2031 -182.946 -0.354937 -174.233
lowerback 14.1287 2.43742 -8.9649
upperback -2.39778 1.09991 -2.90412
thorax -10.7682 0.868366 1.64509
lowerneck -3.26964 -5.89478 -8.76512
upperneck 8.82146 -9.71612 16.1997
head 4.37499 -4.7333 5.91588
rclavicle -7.05686e-015 -9.22361e-014
rhumerus -55.0173 28.5717 -110.884
rradius 51.0819
rwrist -3.64393
rhand -3.38699 -50.9286
rfingers 7.12502
rthumb -157.657 460.343
lclavicle -7.05686e-015 -9.22361e-014
lhumerus -47.9087 -5.95794 87.8389
lradius 39.1749
lwrist -5.34179
lhand -18.9088 -36.3733
lfingers 7.12502
lthumb 7.39316 -6.52247
rfemur -29.809 2.87418 23.8353
rtibia 53.7409
rfoot -12.1279 -15.0809
rtoes -3.50202
lfemur -6.59893 -7.49364 -23.4157
ltibia 36.5134
lfoot -30.9862 11.7413
ltoes -18.7644
